
<svg xmlns="http://www.w3.org/2000/svg" xmlns:xlink="http://www.w3.org/1999/xlink" version="1.1" id="Layer_1" x="0px" y="0px" viewBox="0 0 33.6 186.3" style="enable-background:new 0 0 33.6 186.3;" xml:space="preserve">
<style type="text/css">
	.st0{fill:#EFB321;}
</style>
<path class="st0" d="M26.9,168.1C27,123,26.8,45.4,26.9,0l6.6,20.8c-0.4,45.3,0.4,120,0,165.4L26.9,168.1z">
  <animate
      attributeName="opacity"
      dur="2s"
      values="0;1;0"
      repeatCount="indefinite"
      begin="0.1"/>
</path>

<path class="st0" d="M0.1,152.8c0.6-0.2,6.6-11.9,6.6-13.2c-0.1-10.5,0.1-79.4,0-90.7c-1.5-3.7-4.7-10.3-6.6-15.4  C0,34.1-0.1,152.1,0.1,152.8z">
<animate
      attributeName="opacity"
      dur="2s"
      values="0;1;0"
      repeatCount="indefinite" 
      begin="0.2"/>
</path>

<path class="st0" d="M13.5,145.2c0-4.2-0.1-84.7,0-96.6c2.8-8.5,4.6-15.4,6.6-20.5c0,4.4,0.1,126.8,0.2,130L13.5,145.2z">
  <animate
      attributeName="opacity"
      dur="2s"
      values="0;1;0"
      repeatCount="indefinite" 
      begin="0.3"/>     
</path>

</svg>