<svg id="upload" xmlns="http://www.w3.org/2000/svg" width="81" height="81" viewBox="0 0 81 81">
  <g id="Group_14761" data-name="Group 14761">
    <g id="Group_14760" data-name="Group 14760">
      <path id="Path_71970" data-name="Path 71970" d="M76.583,76.582A14.984,14.984,0,0,1,65.918,81H15.082A15.1,15.1,0,0,1,0,65.918V15.082A15.1,15.1,0,0,1,15.082,0H65.918A15.1,15.1,0,0,1,81,15.082V65.918A14.982,14.982,0,0,1,76.583,76.582Zm-.329-61.5h0A10.348,10.348,0,0,0,65.918,4.746H15.082A10.348,10.348,0,0,0,4.746,15.082V65.918A10.348,10.348,0,0,0,15.082,76.254H65.918A10.335,10.335,0,0,0,76.254,65.918V15.082Z" fill="#11151b"/>
    </g>
  </g>
  <g id="Group_14763" data-name="Group 14763" transform="translate(25.545 29.96)">
    <g id="Group_14762" data-name="Group 14762">
      <path id="Path_71971" data-name="Path 71971" d="M190.685,118.913,178.1,131.494a2.373,2.373,0,0,1-3.356,0l-12.581-12.582a2.373,2.373,0,1,1,3.356-3.356l8.53,8.53V98.772a2.373,2.373,0,0,1,4.746,0v25.315l8.531-8.531a2.373,2.373,0,0,1,3.356,3.356Z" transform="translate(-161.471 -96.399)" fill="#f1a20b"/>
    </g>
  </g>
  <g id="Group_14765" data-name="Group 14765" transform="translate(15.251 15.251)">
    <g id="Group_14764" data-name="Group 14764">
      <path id="Path_71972" data-name="Path 71972" d="M144.527,390.347H98.775a2.373,2.373,0,0,1,0-4.746h45.752a2.373,2.373,0,0,1,0,4.746Z" transform="translate(-96.402 -385.601)" fill="#11151b"/>
    </g>
  </g>
</svg>
