<?xml version="1.0" encoding="utf-8"?>
<!-- Generator: Adobe Illustrator 23.0.1, SVG Export Plug-In . SVG Version: 6.00 Build 0)  -->
<svg version="1.1" id="Layer_1" xmlns="http://www.w3.org/2000/svg" xmlns:xlink="http://www.w3.org/1999/xlink" x="0px" y="0px"
	 viewBox="0 0 50 50" style="enable-background:new 0 0 50 50;" xml:space="preserve">
<style type="text/css">
	.st0{opacity:0.25;fill:#13161C;enable-background:new    ;}
</style>
<path class="st0" d="M22.58,17.9V0C8.77,1.41-1.28,13.75,0.13,27.55C1.34,39.41,10.72,48.79,22.58,50V32.1
	c-2.91-1.2-4.86-3.96-5.02-7.1C17.72,21.86,19.67,19.1,22.58,17.9z M32.08,22.58H50C49,10.55,39.45,0.99,27.42,0v17.96
	C29.64,18.64,31.38,20.37,32.08,22.58z M27.42,32.04V50C39.45,49.01,49,39.45,50,27.42H32.08C31.38,29.63,29.64,31.36,27.42,32.04z"
	/>
</svg>
