<?xml version="1.0" encoding="utf-8"?>
<!-- Generator: Adobe Illustrator 23.0.1, SVG Export Plug-In . SVG Version: 6.00 Build 0)  -->
<svg version="1.1" id="Layer_1" xmlns="http://www.w3.org/2000/svg" xmlns:xlink="http://www.w3.org/1999/xlink" x="0px" y="0px"
	 viewBox="0 0 50 50" style="enable-background:new 0 0 50 50;" xml:space="preserve">
<style type="text/css">
	.st0{opacity:0.25;fill:#13161C;enable-background:new    ;}
</style>
<path class="st0" d="M25,0C11.19,0,0,11.19,0,25s11.19,25,25,25s25-11.19,25-25C50,11.19,38.81,0,25,0z M25,7.81
	c4.32,0,7.81,3.5,7.81,7.81c0,4.32-3.5,7.81-7.81,7.81c-4.32,0-7.81-3.5-7.81-7.81c0,0,0,0,0,0c-0.01-4.31,3.48-7.81,7.79-7.81
	C24.98,7.81,24.99,7.81,25,7.81z M24.22,42.19c-5.98,0-11.55-3-14.84-7.99c0.07-4.94,9.9-7.64,14.84-7.64
	c4.92,0,14.77,2.7,14.84,7.64C35.77,39.19,30.19,42.19,24.22,42.19z"/>
</svg>
