<?xml version="1.0" encoding="utf-8"?>
<!-- Generator: Adobe Illustrator 23.0.1, SVG Export Plug-In . SVG Version: 6.00 Build 0)  -->
<svg version="1.1" id="Layer_1" xmlns="http://www.w3.org/2000/svg" xmlns:xlink="http://www.w3.org/1999/xlink" x="0px" y="0px"
	 viewBox="0 0 50.01 51.67" style="enable-background:new 0 0 50.01 51.67;" xml:space="preserve">
<style type="text/css">
	.st0{opacity:0.25;fill:#13161C;enable-background:new    ;}
</style>
<path class="st0" d="M44.1,28.37c0.11-0.84,0.17-1.69,0.18-2.53c-0.01-0.85-0.07-1.69-0.18-2.53l5.42-4.26
	c0.49-0.4,0.62-1.1,0.31-1.65l-5.14-8.94c-0.31-0.55-0.98-0.79-1.57-0.57l-6.4,2.58c-1.33-1.04-2.79-1.89-4.34-2.53L31.4,1.08
	C31.32,0.46,30.78-0.01,30.15,0H19.87c-0.63-0.01-1.17,0.46-1.26,1.09l-0.98,6.85c-1.55,0.66-3.01,1.51-4.34,2.53l-6.4-2.58
	C6.29,7.64,5.62,7.89,5.32,8.45l-5.14,8.94c-0.33,0.55-0.19,1.26,0.31,1.65l5.42,4.26c-0.11,0.84-0.17,1.69-0.18,2.53
	c0.01,0.85,0.07,1.69,0.18,2.53l-5.42,4.26c-0.49,0.4-0.62,1.1-0.31,1.65l5.14,8.94c0.31,0.55,0.98,0.79,1.57,0.57l6.4-2.58
	c1.33,1.04,2.79,1.89,4.34,2.53l0.98,6.85c0.09,0.63,0.63,1.09,1.26,1.08h10.28c0.63,0.01,1.17-0.46,1.26-1.08l0.98-6.85
	c1.55-0.66,3.01-1.51,4.34-2.53l6.4,2.58c0.59,0.24,1.27-0.01,1.57-0.57l5.14-8.94c0.31-0.55,0.18-1.25-0.31-1.65L44.1,28.37z
	 M25,34.88c-4.99,0.02-9.06-4.01-9.08-9c-0.02-4.99,4.01-9.06,9-9.08c4.99-0.02,9.06,4.01,9.08,9c0,0.01,0,0.03,0,0.04
	C34.01,30.81,29.98,34.86,25,34.88L25,34.88z"/>
</svg>
