<?xml version="1.0" encoding="utf-8"?>
<!-- Generator: Adobe Illustrator 23.0.1, SVG Export Plug-In . SVG Version: 6.00 Build 0)  -->
<svg version="1.1" id="Layer_1" xmlns="http://www.w3.org/2000/svg" xmlns:xlink="http://www.w3.org/1999/xlink" x="0px" y="0px"
	 viewBox="0 0 30 30" style="enable-background:new 0 0 30 30;" xml:space="preserve">
<style type="text/css">
	.st0{fill:none;stroke:#202020;stroke-width:2;stroke-linejoin:round;stroke-miterlimit:10;}
	.st1{fill:none;stroke:#F8991D;stroke-width:2;stroke-linejoin:round;stroke-miterlimit:10;}
	.st2{fill:none;stroke:#202020;stroke-width:2;stroke-linecap:round;stroke-linejoin:round;stroke-miterlimit:10;}
	.st3{fill:none;stroke:#F8991D;stroke-width:2;stroke-linecap:round;stroke-linejoin:round;stroke-miterlimit:10;}
	.st4{fill:#F0A31F;}
	.st5{fill:#13161C;}
</style>
<g>
	<path class="st2" d="M20.11,2.58L7.09,16.22c-0.29,0.26-0.31,0.7-0.05,0.99c0.14,0.15,0.33,0.23,0.53,0.23h6.21l-3.53,9.62
		c-0.12,0.49,0.36,0.85,0.73,0.49l14.24-13.15c0.29-0.26,0.31-0.7,0.05-0.99c-0.14-0.15-0.33-0.23-0.53-0.23h-7.3l3.53-10.1
		c0.07-0.27-0.09-0.55-0.36-0.63C20.43,2.4,20.24,2.45,20.11,2.58z"/>
	<line class="st3" x1="1" y1="1" x2="5.38" y2="5.38"/>
	<line class="st3" x1="24.62" y1="24.62" x2="29" y2="29"/>
</g>
</svg>
