<?xml version="1.0" encoding="utf-8"?>
<!-- Generator: Adobe Illustrator 23.0.1, SVG Export Plug-In . SVG Version: 6.00 Build 0)  -->
<svg version="1.1" id="Layer_1" xmlns="http://www.w3.org/2000/svg" xmlns:xlink="http://www.w3.org/1999/xlink" x="0px" y="0px"
	 viewBox="0 0 31.73 32.73" style="enable-background:new 0 0 31.73 32.73;" xml:space="preserve">
<style type="text/css">
	.st0{fill:none;stroke:#202020;stroke-width:2;stroke-linejoin:round;stroke-miterlimit:10;}
	.st1{fill:none;stroke:#F8991D;stroke-width:2;stroke-linejoin:round;stroke-miterlimit:10;}
	.st2{fill:none;stroke:#202020;stroke-width:2;stroke-linecap:round;stroke-linejoin:round;stroke-miterlimit:10;}
	.st3{fill:none;stroke:#F8991D;stroke-width:2;stroke-linecap:round;stroke-linejoin:round;stroke-miterlimit:10;}
	.st4{fill:#F0A31F;}
	.st5{fill:#13161C;}
</style>
<g>
	<path class="st4" d="M10.74,9.32H6.96C6.57,9.28,6.22,9.56,6.17,9.96v3.58c0.05,0.39,0.4,0.68,0.79,0.64h3.78
		c0.39,0.04,0.74-0.25,0.79-0.64V9.96C11.48,9.56,11.13,9.28,10.74,9.32z M9.95,12.9h-2.2v-2.3h2.21L9.95,12.9z"/>
	<path class="st5" d="M10.74,16.48H6.96c-0.39-0.04-0.74,0.25-0.79,0.64v3.58c0.05,0.39,0.4,0.68,0.79,0.64h3.78
		c0.39,0.04,0.74-0.25,0.79-0.64v-3.58C11.48,16.73,11.13,16.44,10.74,16.48z M9.95,20.06h-2.2v-2.3h2.21L9.95,20.06z"/>
	<path class="st4" d="M9.88,23.64H6.81c-0.35,0-0.64,0.29-0.64,0.64l0,0v3.58c0,0.35,0.29,0.64,0.64,0.64h0h3.07
		c0.35,0,0.64-0.29,0.64-0.64l0,0v-3.58C10.52,23.92,10.23,23.64,9.88,23.64L9.88,23.64z M9.24,27.22H7.45v-2.3h1.79L9.24,27.22z"/>
	<path class="st5" d="M25.56,23.64h-3.07c-0.35,0-0.64,0.29-0.64,0.64l0,0v3.58c0,0.35,0.29,0.64,0.64,0.64l0,0h3.07
		c0.35,0,0.64-0.29,0.64-0.64l0,0v-3.58C26.2,23.92,25.92,23.64,25.56,23.64L25.56,23.64z M24.92,27.22h-1.79v-2.3h1.79V27.22z"/>
	<path class="st5" d="M18.27,9.32h-3.53C14.36,9.29,14.03,9.58,14,9.96v3.58c0.03,0.38,0.36,0.66,0.74,0.64h3.53
		c0.38,0.02,0.71-0.26,0.74-0.64V9.96C18.97,9.58,18.64,9.29,18.27,9.32z M17.53,12.9h-2.06v-2.3h2.06V12.9z"/>
	<path class="st5" d="M18.27,16.48h-3.53c-0.38-0.02-0.71,0.26-0.74,0.64v3.58c0.03,0.38,0.36,0.66,0.74,0.64h3.53
		c0.38,0.02,0.71-0.26,0.74-0.64v-3.58C18.97,16.74,18.64,16.45,18.27,16.48z M17.53,20.06h-2.06v-2.3h2.06V20.06z"/>
	<path class="st4" d="M25.28,9.32h-3.53c-0.38-0.02-0.71,0.26-0.73,0.64v3.58c0.03,0.38,0.36,0.66,0.73,0.64h3.53
		c0.38,0.02,0.71-0.26,0.73-0.64V9.96C25.99,9.58,25.66,9.29,25.28,9.32z M24.55,12.9h-2.06v-2.3h2.06V12.9z"/>
	<path class="st5" d="M25.28,16.48h-3.53c-0.38-0.02-0.71,0.26-0.73,0.64v3.58c0.03,0.38,0.36,0.66,0.73,0.64h3.53
		c0.38,0.02,0.71-0.26,0.73-0.64v-3.58C25.99,16.74,25.66,16.45,25.28,16.48z M24.55,20.06h-2.06v-2.3h2.06V20.06z"/>
	<path class="st5" d="M31.09,31.45H28.7V6.65c0-0.35-0.29-0.64-0.64-0.64h-2.55V3.71c0-0.35-0.29-0.64-0.64-0.64h-3.52V0.64
		c0-0.35-0.29-0.64-0.64-0.64h-8.7c-0.35,0-0.64,0.29-0.64,0.64v2.43H7.87c-0.35,0-0.64,0.29-0.64,0.64v2.31H3.68
		c-0.35,0-0.64,0.29-0.64,0.64v24.8h-2.4C0.29,31.45,0,31.74,0,32.09c0,0.35,0.29,0.64,0.64,0.64h30.45c0.35,0,0.64-0.29,0.64-0.64
		C31.73,31.74,31.45,31.45,31.09,31.45L31.09,31.45z M12.66,1.28h7.42v1.79h-7.42V1.28z M19.05,31.45h-4.42l4.42-4.42V31.45z
		 M19.05,25.23c-0.01,0.01-0.03,0.02-0.04,0.04l-5.33,5.33v-2.71l4.1-4.1h1.27L19.05,25.23z M13.68,26.07v-2.29h2.29L13.68,26.07z
		 M27.42,31.45h-7.09v-7.67h0.22c0.35,0,0.64-0.29,0.64-0.64s-0.29-0.64-0.64-0.64h-8.38c-0.35,0-0.64,0.29-0.64,0.64
		s0.29,0.64,0.64,0.64l0,0h0.22v7.67H4.32V7.29h7.1c0.35,0,0.64-0.29,0.64-0.64s-0.29-0.64-0.64-0.64l0,0H8.5V4.35h15.73v1.67h-7.76
		c-0.35,0-0.64,0.29-0.64,0.64s0.29,0.64,0.64,0.64h10.95L27.42,31.45L27.42,31.45z"/>
	<path class="st4" d="M14.36,6.2c-0.25-0.25-0.65-0.25-0.9,0c-0.25,0.25-0.25,0.65,0,0.9s0.65,0.25,0.9,0
		c0.12-0.12,0.19-0.28,0.19-0.45C14.54,6.48,14.48,6.32,14.36,6.2z"/>
</g>
</svg>
