<?xml version="1.0" encoding="utf-8"?>
<!-- Generator: Adobe Illustrator 23.0.1, SVG Export Plug-In . SVG Version: 6.00 Build 0)  -->
<svg version="1.1" id="Layer_1" xmlns="http://www.w3.org/2000/svg" xmlns:xlink="http://www.w3.org/1999/xlink" x="0px" y="0px"
	 viewBox="0 0 54.92 298.99" style="enable-background:new 0 0 54.92 298.99;" xml:space="preserve">
<style type="text/css">
	.st0{fill:none;stroke:#13161C;stroke-linecap:round;}
	.st1{fill:none;stroke:#F0A31F;stroke-linecap:round;}
</style>
<g>
	<path class="st0" d="M43.66,269.71c0.23-72.25-0.23-196.72,0-269.55l10.59,33.36c-0.6,72.57,0.6,192.4,0,265.31L43.66,269.71z"/>
	<path class="st0" d="M0.66,245.12c0.99-0.35,10.64-19.02,10.62-21.13c-0.18-16.87,0.17-127.29,0-145.47
		C8.91,72.58,3.81,61.97,0.66,53.85C0.52,54.83,0.38,243.98,0.66,245.12z"/>
	<path class="st1" d="M22.22,233.04c0-6.73-0.15-135.89,0-154.89c4.58-13.7,7.41-24.63,10.5-32.88
		c0.01,7.07,0.18,203.29,0.27,208.44L22.22,233.04z"/>
</g>
</svg>
